[h264 @ 0x55acf4801cc0] Reinit context to 1280x720, pix_fmt: yuv420p
Input #0, mov,mp4,m4a,3gp,3g2,mj2, from '/var/www/html/project/media/video/original/INCENDIO_SERBATOIO_GPL.mp4':
  Metadata:
    major_brand     : mp42
    minor_version   : 1
    compatible_brands: isommp41mp42
    creation_time   : 2022-01-13T20:46:08.000000Z
  Duration: 00:00:38.63, start: 0.000000, bitrate: 12191 kb/s
    Stream #0:0(ita): Audio: aac (LC) (mp4a / 0x6134706D), 48000 Hz, stereo, fltp, 117 kb/s (default)
    Metadata:
      creation_time   : 2022-01-13T20:46:08.000000Z
      handler_name    : Core Media Audio
    Stream #0:1(und): Video: h264 (High), 1 reference frame (avc1 / 0x31637661), yuv420p(tv, bt709, progressive, left), 1280x720 [SAR 1:1 DAR 16:9], 12050 kb/s, 30 fps, 30 tbr, 30k tbn, 60k tbc (default)
    Metadata:
      creation_time   : 2022-01-13T20:46:08.000000Z
      handler_name    : Core Media Video
Input #1, png_pipe, from '/var/www/html/project/static/images/templates/logo.png':
  Duration: N/A, bitrate: N/A
    Stream #1:0: Video: png, 1 reference frame, rgba(pc), 1920x1080 [SAR 2835:2835 DAR 16:9], 25 tbr, 25 tbn, 25 tbc
[h264 @ 0x55acf485c200] Reinit context to 1280x720, pix_fmt: yuv420p
Input #2, mov,mp4,m4a,3gp,3g2,mj2, from '/var/www/html/project/static/images/templates/Codino.mp4':
  Metadata:
    major_brand     : mp42
    minor_version   : 1
    compatible_brands: isommp41mp42
    creation_time   : 2021-07-11T07:02:58.000000Z
  Duration: 00:00:02.00, start: 0.000000, bitrate: 1007 kb/s
    Stream #2:0(ita): Audio: aac (LC) (mp4a / 0x6134706D), 44100 Hz, stereo, fltp, 102 kb/s (default)
    Metadata:
      creation_time   : 2021-07-11T07:02:58.000000Z
      handler_name    : Core Media Audio
    Stream #2:1(und): Video: h264 (High), 1 reference frame (avc1 / 0x31637661), yuv420p(tv, bt709, progressive, left), 1280x720 [SAR 1:1 DAR 16:9], 813 kb/s, 25 fps, 25 tbr, 25k tbn, 50k tbc (default)
    Metadata:
      creation_time   : 2021-07-11T07:02:58.000000Z
      handler_name    : Core Media Video
[Parsed_scale_0 @ 0x55acf4815e00] w:1280 h:720 flags:'bilinear' interl:0
[Parsed_scale_2 @ 0x55acf48a3780] w:1280 h:720 flags:'bilinear' interl:0
[Parsed_scale_4 @ 0x55acf48a3180] w:1280 h:720 flags:'bilinear' interl:0
Stream mapping:
  Stream #0:0 (aac) -> concat:in0:a0
  Stream #0:1 (h264) -> scale
  Stream #1:0 (png) -> scale
  Stream #2:0 (aac) -> concat:in1:a0
  Stream #2:1 (h264) -> scale
  concat:out:v0 -> Stream #0:0 (libx264)
  concat:out:a0 -> Stream #0:1 (aac)
Press [q] to stop, [?] for help
[h264 @ 0x55acf4806600] Reinit context to 1280x720, pix_fmt: yuv420p
[h264 @ 0x55acf4c40d80] Reinit context to 1280x720, pix_fmt: yuv420p
[Parsed_scale_0 @ 0x55acf5bd6100] w:1280 h:720 flags:'bilinear' interl:0
[Parsed_scale_2 @ 0x55acf5bdee00] w:1280 h:720 flags:'bilinear' interl:0
[Parsed_scale_4 @ 0x55acf5bdfdc0] w:1280 h:720 flags:'bilinear' interl:0
[graph 0 input from stream 0:1 @ 0x55acf5be45c0] w:1280 h:720 pixfmt:yuv420p tb:1/30000 fr:30/1 sar:1/1 sws_param:flags=2
[graph 0 input from stream 1:0 @ 0x55acf5be5640] w:1920 h:1080 pixfmt:rgba tb:1/25 fr:25/1 sar:2835/2835 sws_param:flags=2
[graph 0 input from stream 2:1 @ 0x55acf5be66c0] w:1280 h:720 pixfmt:yuv420p tb:1/25000 fr:25/1 sar:1/1 sws_param:flags=2
[graph_0_in_0_0 @ 0x55acf5be7640] tb:1/48000 samplefmt:fltp samplerate:48000 chlayout:0x3
[graph_0_in_2_0 @ 0x55acf5be8780] tb:1/44100 samplefmt:fltp samplerate:44100 chlayout:0x3
[Parsed_concat_7 @ 0x55acf5be2640] auto-inserting filter 'auto_resampler_0' between the filter 'graph_0_in_2_0' and the filter 'Parsed_concat_7'
[Parsed_scale_0 @ 0x55acf5bd6100] w:1280 h:720 fmt:yuv420p sar:1/1 -> w:1280 h:720 fmt:yuv420p sar:1/1 flags:0x2
[Parsed_setsar_1 @ 0x55acf4989c40] w:1280 h:720 sar:1/1 dar:16/9 -> sar:1/1 dar:16/9
[Parsed_scale_2 @ 0x55acf5bdee00] w:1920 h:1080 fmt:rgba sar:2835/2835 -> w:1280 h:720 fmt:yuva420p sar:1/1 flags:0x2
[Parsed_setsar_3 @ 0x55acf5bdf300] w:1280 h:720 sar:1/1 dar:16/9 -> sar:1/1 dar:16/9
[Parsed_overlay_6 @ 0x55acf5be1500] main w:1280 h:720 fmt:yuv420p overlay w:1280 h:720 fmt:yuva420p
[Parsed_overlay_6 @ 0x55acf5be1500] [framesync @ 0x55acf5be1668] Selected 1/30000 time base
[Parsed_overlay_6 @ 0x55acf5be1500] [framesync @ 0x55acf5be1668] Sync level 2
[Parsed_scale_4 @ 0x55acf5bdfdc0] w:1280 h:720 fmt:yuv420p sar:1/1 -> w:1280 h:720 fmt:yuv420p sar:1/1 flags:0x2
[Parsed_setsar_5 @ 0x55acf5be0900] w:1280 h:720 sar:1/1 dar:16/9 -> sar:1/1 dar:16/9
[auto_resampler_0 @ 0x55acf5bef400] ch:2 chl:stereo fmt:fltp r:44100Hz -> ch:2 chl:stereo fmt:fltp r:48000Hz
[libx264 @ 0x55acf4856c40] using SAR=1/1
[libx264 @ 0x55acf4856c40] using cpu capabilities: MMX2 SSE2Fast SSSE3 SSE4.2 AVX FMA3 BMI2 AVX2
[libx264 @ 0x55acf4856c40] profile High, level 3.1
[libx264 @ 0x55acf4856c40] 264 - core 155 r2917 0a84d98 - H.264/MPEG-4 AVC codec - Copyleft 2003-2018 - http://www.videolan.org/x264.html - options: cabac=1 ref=1 deblock=1:0:0 analyse=0x3:0x113 me=hex subme=2 psy=1 psy_rd=1.00:0.00 mixed_ref=0 me_range=16 chroma_me=1 trellis=0 8x8dct=1 cqm=0 deadzone=21,11 fast_pskip=1 chroma_qp_offset=0 threads=22 lookahead_threads=5 sliced_threads=0 nr=0 decimate=1 interlaced=0 bluray_compat=0 constrained_intra=0 bframes=3 b_pyramid=2 b_adapt=1 b_bias=0 direct=1 weightb=1 open_gop=0 weightp=1 keyint=250 keyint_min=25 scenecut=40 intra_refresh=0 rc_lookahead=10 rc=crf mbtree=1 crf=18.0 qcomp=0.60 qpmin=0 qpmax=69 qpstep=4 ip_ratio=1.40 aq=1:1.00
Output #0, mp4, to '/var/www/html/project/media/video/watermarks/INCENDIO_SERBATOIO_GPL.mp4':
  Metadata:
    major_brand     : mp42
    minor_version   : 1
    compatible_brands: isommp41mp42
    encoder         : Lavf58.29.100
    Stream #0:0: Video: h264 (libx264), 1 reference frame (avc1 / 0x31637661), yuv420p(progressive), 1280x720 [SAR 1:1 DAR 16:9], q=-1--1, 30 fps, 15360 tbn, 30 tbc (default)
    Metadata:
      encoder         : Lavc58.54.100 libx264
    Side data:
      cpb: bitrate max/min/avg: 0/0/0 buffer size: 0 vbv_delay: -1
    Stream #0:1: Audio: aac (LC) (mp4a / 0x6134706D), 48000 Hz, stereo, fltp, delay 1024, 128 kb/s (default)
    Metadata:
      encoder         : Lavc58.54.100 aac
[Parsed_concat_7 @ 0x55acf5be2640] EOF on in0:a0, 1 streams left in segment.
[Parsed_overlay_6 @ 0x55acf5be1500] [framesync @ 0x55acf5be1668] Sync level 0
[Parsed_concat_7 @ 0x55acf5be2640] EOF on in0:v0, 0 streams left in segment.
[Parsed_concat_7 @ 0x55acf5be2640] Segment finished at pts=38633333
[Parsed_concat_7 @ 0x55acf5be2640] EOF on in1:v0, 1 streams left in segment.
[Parsed_concat_7 @ 0x55acf5be2640] EOF on in1:a0, 0 streams left in segment.
[Parsed_concat_7 @ 0x55acf5be2640] Segment finished at pts=40652020
No more output streams to write to, finishing.
frame= 1209 fps=159 q=-1.0 Lsize=   25824kB time=00:00:40.66 bitrate=5202.7kbits/s speed=5.36x    
[AVIOContext @ 0x55acf47fe440] Statistics: 0 seeks, 16 writeouts
video:25152kB audio:629kB subtitle:0kB other streams:0kB global headers:0kB muxing overhead: 0.167462%
Input file #0 (/var/www/html/project/media/video/original/INCENDIO_SERBATOIO_GPL.mp4):
  Input stream #0:0 (audio): 1813 packets read (570623 bytes); 1811 frames decoded (1854400 samples); 
  Input stream #0:1 (video): 1159 packets read (58194686 bytes); 1159 frames decoded; 
  Total: 2972 packets (58765309 bytes) demuxed
Input file #1 (/var/www/html/project/static/images/templates/logo.png):
  Input stream #1:0 (video): 1 packets read (111578 bytes); 1 frames decoded; 
  Total: 1 packets (111578 bytes) demuxed
Input file #2 (/var/www/html/project/static/images/templates/Codino.mp4):
  Input stream #2:0 (audio): 89 packets read (26579 bytes); 87 frames decoded (89024 samples); 
  Input stream #2:1 (video): 50 packets read (203365 bytes); 50 frames decoded; 
  Total: 139 packets (229944 bytes) demuxed
Output file #0 (/var/www/html/project/media/video/watermarks/INCENDIO_SERBATOIO_GPL.mp4):
  Output stream #0:0 (video): 1209 frames encoded; 1209 packets muxed (25755158 bytes); 
  Output stream #0:1 (audio): 1906 frames encoded (1951297 samples); 1907 packets muxed (644233 bytes); 
  Total: 3116 packets (26399391 bytes) muxed
[AVIOContext @ 0x55acf4856540] Statistics: 2 seeks, 104 writeouts
[libx264 @ 0x55acf4856c40] frame I:9     Avg QP:16.87  size: 71264
[libx264 @ 0x55acf4856c40] frame P:507   Avg QP:18.75  size: 28410
[libx264 @ 0x55acf4856c40] frame B:693   Avg QP:20.56  size: 15454
[libx264 @ 0x55acf4856c40] consecutive B-frames: 18.6%  9.3% 16.9% 55.3%
[libx264 @ 0x55acf4856c40] mb I  I16..4: 14.5% 37.9% 47.5%
[libx264 @ 0x55acf4856c40] mb P  I16..4: 15.5% 35.5%  8.7%  P16..4: 16.7% 10.2%  5.1%  0.0%  0.0%    skip: 8.4%
[libx264 @ 0x55acf4856c40] mb B  I16..4:  6.0% 15.6%  2.7%  B16..8: 24.8% 12.3%  1.5%  direct:12.9%  skip:24.2%  L0:49.5% L1:37.7% BI:12.8%
[libx264 @ 0x55acf4856c40] 8x8 transform intra:60.8% inter:34.6%
[libx264 @ 0x55acf4856c40] coded y,uvDC,uvAC intra: 54.7% 71.3% 31.8% inter: 18.4% 42.5% 1.7%
[libx264 @ 0x55acf4856c40] i16 v,h,dc,p: 57% 25% 10%  9%
[libx264 @ 0x55acf4856c40] i8 v,h,dc,ddl,ddr,vr,hd,vl,hu: 27% 34% 16%  3%  4%  4%  5%  3%  4%
[libx264 @ 0x55acf4856c40] i4 v,h,dc,ddl,ddr,vr,hd,vl,hu: 27% 28% 10%  5%  7%  6%  7%  5%  5%
[libx264 @ 0x55acf4856c40] i8c dc,h,v,p: 40% 27% 22% 11%
[libx264 @ 0x55acf4856c40] Weighted P-Frames: Y:10.8% UV:8.1%
[libx264 @ 0x55acf4856c40] kb/s:5070.61
[aac @ 0x55acf49d1a80] Qavg: 1296.527
[AVIOContext @ 0x55acf48073c0] Statistics: 95853380 bytes read, 2273 seeks
[AVIOContext @ 0x55acf4814840] Statistics: 111578 bytes read, 0 seeks
[AVIOContext @ 0x55acf4804780] Statistics: 1530915 bytes read, 42 seeks
